<svg xmlns="http://www.w3.org/2000/svg" version="1.1" xmlns:xlink="http://www.w3.org/1999/xlink" xmlns:svgjs="http://svgjs.dev/svgjs" width="1000" height="623" viewBox="0 0 1000 623"><g transform="matrix(1,0,0,1,-0.6060606060606233,0.2522267206477409)"><svg viewBox="0 0 396 247" data-background-color="#ffffff" preserveAspectRatio="xMidYMid meet" height="623" width="1000" xmlns="http://www.w3.org/2000/svg" xmlns:xlink="http://www.w3.org/1999/xlink"><g id="tight-bounds" transform="matrix(1,0,0,1,0.2400000000000091,-0.09999999999999432)"><svg viewBox="0 0 395.52 247.2" height="247.2" width="395.52"><g><svg></svg></g><g><svg viewBox="0 0 395.52 247.2" height="247.2" width="395.52"><g transform="matrix(1,0,0,1,116.55193298969073,47.215199999999996)"><svg viewBox="0 0 162.41613402061853 152.7696" height="152.7696" width="162.41613402061853"><g><svg viewBox="0 0 162.41613402061853 152.7696" height="152.7696" width="162.41613402061853"><g><svg viewBox="0 0 162.41613402061853 152.7696" height="152.7696" width="162.41613402061853"><g><svg viewBox="0 0 162.41613402061853 152.7696" height="152.7696" width="162.41613402061853"><g><svg viewBox="0 0 162.41613402061853 152.7696" height="152.7696" width="162.41613402061853"><g><svg viewBox="0 0 162.41613402061853 152.7696" height="152.7696" width="162.41613402061853"><g transform="matrix(1,0,0,1,0,0)"><svg width="162.41613402061853" viewBox="1.600000023841858 -29.049999237060547 41.25 38.79999923706055" height="152.7696" data-palette-color="#5e1914"><path d="M1.7-18.65L1.7-18.65Q1.6-19.3 1.6-19.45L1.6-19.45Q2.3-23.2 8.95-26.6L8.95-26.6Q14.2-29.05 21.35-29.05L21.35-29.05Q25.75-29.05 30.05-27.85L30.05-27.85Q32.95-26.85 34.45-25 35.95-23.15 35.95-21.25L35.95-21.25Q35.95-18.35 33.65-16.13 31.35-13.9 28.5-12.7L28.5-12.7Q22.15-9.95 14-9.65L14-9.65Q14.65-8.85 16.1-7.03 17.55-5.2 18.3-4.3 19.05-3.4 20.48-1.78 21.9-0.15 22.88 0.73 23.85 1.6 25.35 2.83 26.85 4.05 28.2 4.75L28.2 4.75Q32.9 7.25 36.4 7.25L36.4 7.25 38.1 7.1Q39.8 6.8 40.8 5.73 41.8 4.65 41.8 3.35L41.8 3.35Q41.8 2.85 41.68 2.27 41.55 1.7 42 1.7L42 1.7Q42.5 1.75 42.68 2.43 42.85 3.1 42.85 4.1 42.85 5.1 42.35 6.4L42.35 6.4Q41.8 8.2 39.3 9.15L39.3 9.15Q37.7 9.75 36.3 9.75L36.3 9.75Q32.1 9.75 27.8 7.4L27.8 7.4Q24.95 5.8 22.68 3.43 20.4 1.05 18.88-0.85 17.35-2.75 15.48-5.58 13.6-8.4 12.85-9.35L12.85-9.35 12.5-9.4Q8.7-2.4 8.7-0.95L8.7-0.95Q8.7-0.2 9.35-0.2 10-0.2 11.1-1.58 12.2-2.95 12.6-2.9L12.6-2.9Q12.9-2.6 11.95-1.6L11.95-1.6Q11.85-1.5 11.6-1.07 11.35-0.65 11.18-0.4 11-0.15 10.7 0.25 10.4 0.65 10.15 0.9 9.9 1.15 9.6 1.4L9.6 1.4Q9 1.9 8.55 1.9 8.1 1.9 7.3 1.73 6.5 1.55 6.5 1.05L6.5 1.05Q6.5-1.2 10.6-9.4L10.6-9.4Q8.95-9.55 8.95-10.6L8.95-10.6Q8.95-10.8 9-11.1L9-11.1Q9.35-11.95 10.28-11.95 11.2-11.95 11.75-11.5L11.75-11.5Q12.15-12.3 12.7-13.3L12.7-13.3Q14.65-16.8 14.65-17.75L14.65-17.75Q14.65-18 14.6-18.25L14.6-18.25Q14.8-19.65 17.03-21.93 19.25-24.2 21.05-24.2L21.05-24.2Q21.65-24.2 22.65-23.75 23.65-23.3 23.85-22.5L23.85-22.5Q23.9-22.15 23.88-22.08 23.85-22 23.6-22.1 23.35-22.2 23.3-22.2L23.3-22.2Q19.8-22.2 13.3-10.85L13.3-10.85Q13.9-10.6 14.48-10.6 15.05-10.6 15.45-10.65L15.45-10.65Q20.55-11.2 25.43-13.05 30.3-14.9 33-17.7L33-17.7Q34.75-19.4 34.75-21.3L34.75-21.3Q34.75-26.9 23.3-26.9L23.3-26.9Q16.75-26.9 10.8-24.9L10.8-24.9Q7.7-23.8 5.53-21.95 3.35-20.1 2.95-17.75L2.95-17.75Q2.9-17.5 2.9-17.1 2.9-16.7 3.23-16.13 3.55-15.55 4-15.25 4.45-14.95 5.28-14.55 6.1-14.15 6.38-13.95 6.65-13.75 6.5-13.53 6.35-13.3 5.85-13.4L5.85-13.4Q4.3-13.65 2.95-14.95 1.6-16.25 1.6-17.75L1.6-17.75Q1.6-18.2 1.7-18.65Z" opacity="1" transform="matrix(1,0,0,1,0,0)" fill="#ffffff" class="undefined-text-0" data-fill-palette-color="primary" id="text-0"></path></svg></g></svg></g></svg></g></svg></g></svg></g></svg></g></svg></g><g><path d="M0 123.6c0-68.262 55.338-123.6 123.6-123.6 30.402 0 58.24 10.976 79.768 29.183l-11.147 0c-19.26-14.022-42.974-22.294-68.621-22.295-64.458 0-116.712 52.254-116.712 116.712 0 64.458 52.254 116.712 116.712 116.712 25.647 0 49.361-8.272 68.621-22.295l11.147 0c-21.528 18.206-49.366 29.183-79.768 29.183-68.262 0-123.6-55.338-123.6-123.6z" fill="#ffffff" stroke="transparent" data-fill-palette-color="tertiary"></path></g></svg></g><defs></defs></svg><rect width="395.52" height="247.2" fill="none" stroke="none" visibility="hidden"></rect></g></svg></g></svg>